<?xml version="1.0" encoding="UTF-8" standalone="no"?>
<!DOCTYPE svg PUBLIC "-//W3C//DTD SVG 1.1//EN"
 "http://www.w3.org/Graphics/SVG/1.1/DTD/svg11.dtd">
<!-- Generated by graphviz version 2.43.0 (0)
 -->
<!-- Title: _300 Pages: 1 -->
<svg width="1409pt" height="708pt"
 viewBox="0.00 0.00 1409.09 708.00" xmlns="http://www.w3.org/2000/svg" xmlns:xlink="http://www.w3.org/1999/xlink">
<g id="graph0" class="graph" transform="scale(1 1) rotate(0) translate(4 704)">
<title>_300</title>
<polygon fill="white" stroke="transparent" points="-4,4 -4,-704 1405.09,-704 1405.09,4 -4,4"/>
<g id="clust1" class="cluster">
<title>cluster300diagram</title>
<polygon fill="none" stroke="black" points="8,-8 8,-692 1393.09,-692 1393.09,-8 8,-8"/>
<text text-anchor="start" x="666.55" y="-673.8" font-family="Times,serif" font-weight="bold" font-size="14.00">Diagram</text>
<text text-anchor="start" x="590.55" y="-659.8" font-family="Times,serif" font-size="14.00">name=object_catching_system</text>
</g>
<g id="clust2" class="cluster">
<title>cluster300subsystems</title>
<polygon fill="none" stroke="white" points="16,-16 16,-640 1385.09,-640 1385.09,-16 16,-16"/>
</g>
<!-- s2 -->
<g id="node1" class="node">
<title>s2</title>
<polygon fill="none" stroke="black" points="32.5,-594 32.5,-628 663.5,-628 663.5,-594 32.5,-594"/>
<text text-anchor="start" x="286.5" y="-614.8" font-family="Times,serif" font-weight="bold" font-size="14.00">MultibodyPlant</text>
<text text-anchor="start" x="304" y="-600.8" font-family="Times,serif" font-size="14.00">name=plant</text>
<polygon fill="none" stroke="black" points="32.5,-573 32.5,-594 299.5,-594 299.5,-573 32.5,-573"/>
<text text-anchor="start" x="107.5" y="-579.8" font-family="Times,serif" font-size="14.00">geometry_query</text>
<polygon fill="none" stroke="black" points="299.5,-573 299.5,-594 663.5,-594 663.5,-573 299.5,-573"/>
<text text-anchor="start" x="427" y="-579.8" font-family="Times,serif" font-size="14.00">geometry_pose</text>
<polygon fill="none" stroke="black" points="32.5,-552 32.5,-573 299.5,-573 299.5,-552 32.5,-552"/>
<text text-anchor="start" x="55.5" y="-558.8" font-family="Times,serif" font-size="14.00" fill="grey">WorldModelInstance_actuation</text>
<polygon fill="none" stroke="black" points="299.5,-552 299.5,-573 663.5,-573 663.5,-552 299.5,-552"/>
<text text-anchor="start" x="433" y="-558.8" font-family="Times,serif" font-size="14.00">net_actuation</text>
<polygon fill="none" stroke="black" points="32.5,-531 32.5,-552 299.5,-552 299.5,-531 32.5,-531"/>
<text text-anchor="start" x="50" y="-537.8" font-family="Times,serif" font-size="14.00" fill="grey">DefaultModelInstance_actuation</text>
<polygon fill="none" stroke="black" points="299.5,-531 299.5,-552 663.5,-552 663.5,-531 299.5,-531"/>
<text text-anchor="start" x="463" y="-537.8" font-family="Times,serif" font-size="14.00">state</text>
<polygon fill="none" stroke="black" points="32.5,-510 32.5,-531 299.5,-531 299.5,-510 32.5,-510"/>
<text text-anchor="start" x="114.5" y="-516.8" font-family="Times,serif" font-size="14.00">iiwa_actuation</text>
<polygon fill="none" stroke="black" points="299.5,-510 299.5,-531 663.5,-531 663.5,-510 299.5,-510"/>
<text text-anchor="start" x="440.5" y="-516.8" font-family="Times,serif" font-size="14.00">body_poses</text>
<polygon fill="none" stroke="black" points="32.5,-489 32.5,-510 299.5,-510 299.5,-489 32.5,-489"/>
<text text-anchor="start" x="114.5" y="-495.8" font-family="Times,serif" font-size="14.00">wsg_actuation</text>
<polygon fill="none" stroke="black" points="299.5,-489 299.5,-510 663.5,-510 663.5,-489 299.5,-489"/>
<text text-anchor="start" x="420" y="-495.8" font-family="Times,serif" font-size="14.00">spatial_velocities</text>
<polygon fill="none" stroke="black" points="32.5,-468 32.5,-489 299.5,-489 299.5,-468 32.5,-468"/>
<text text-anchor="start" x="98" y="-474.8" font-family="Times,serif" font-size="14.00" fill="grey">camera0_actuation</text>
<polygon fill="none" stroke="black" points="299.5,-468 299.5,-489 663.5,-489 663.5,-468 299.5,-468"/>
<text text-anchor="start" x="406.5" y="-474.8" font-family="Times,serif" font-size="14.00">spatial_accelerations</text>
<polygon fill="none" stroke="black" points="32.5,-447 32.5,-468 299.5,-468 299.5,-447 32.5,-447"/>
<text text-anchor="start" x="89" y="-453.8" font-family="Times,serif" font-size="14.00" fill="grey">Tennis_ball_actuation</text>
<polygon fill="none" stroke="black" points="299.5,-447 299.5,-468 663.5,-468 663.5,-447 299.5,-447"/>
<text text-anchor="start" x="392.5" y="-453.8" font-family="Times,serif" font-size="14.00">generalized_acceleration</text>
<polygon fill="none" stroke="black" points="32.5,-426 32.5,-447 299.5,-447 299.5,-426 32.5,-426"/>
<text text-anchor="start" x="132.5" y="-432.8" font-family="Times,serif" font-size="14.00">actuation</text>
<polygon fill="none" stroke="black" points="299.5,-426 299.5,-447 663.5,-447 663.5,-426 299.5,-426"/>
<text text-anchor="start" x="386.5" y="-432.8" font-family="Times,serif" font-size="14.00" fill="grey">WorldModelInstance_state</text>
<polygon fill="none" stroke="black" points="32.5,-405 32.5,-426 299.5,-426 299.5,-405 32.5,-405"/>
<text text-anchor="start" x="41" y="-411.8" font-family="Times,serif" font-size="14.00" fill="grey">WorldModelInstance_desired_state</text>
<polygon fill="none" stroke="black" points="299.5,-405 299.5,-426 663.5,-426 663.5,-405 299.5,-405"/>
<text text-anchor="start" x="316" y="-411.8" font-family="Times,serif" font-size="14.00" fill="grey">WorldModelInstance_generalized_acceleration</text>
<polygon fill="none" stroke="black" points="32.5,-384 32.5,-405 299.5,-405 299.5,-384 32.5,-384"/>
<text text-anchor="start" x="35.5" y="-390.8" font-family="Times,serif" font-size="14.00" fill="grey">DefaultModelInstance_desired_state</text>
<polygon fill="none" stroke="black" points="299.5,-384 299.5,-405 663.5,-405 663.5,-384 299.5,-384"/>
<text text-anchor="start" x="381" y="-390.8" font-family="Times,serif" font-size="14.00" fill="grey">DefaultModelInstance_state</text>
<polygon fill="none" stroke="black" points="32.5,-363 32.5,-384 299.5,-384 299.5,-363 32.5,-363"/>
<text text-anchor="start" x="99.5" y="-369.8" font-family="Times,serif" font-size="14.00" fill="grey">iiwa_desired_state</text>
<polygon fill="none" stroke="black" points="299.5,-363 299.5,-384 663.5,-384 663.5,-363 299.5,-363"/>
<text text-anchor="start" x="310.5" y="-369.8" font-family="Times,serif" font-size="14.00" fill="grey">DefaultModelInstance_generalized_acceleration</text>
<polygon fill="none" stroke="black" points="32.5,-342 32.5,-363 299.5,-363 299.5,-342 32.5,-342"/>
<text text-anchor="start" x="100" y="-348.8" font-family="Times,serif" font-size="14.00" fill="grey">wsg_desired_state</text>
<polygon fill="none" stroke="black" points="299.5,-342 299.5,-363 663.5,-363 663.5,-342 299.5,-342"/>
<text text-anchor="start" x="445" y="-348.8" font-family="Times,serif" font-size="14.00">iiwa_state</text>
<polygon fill="none" stroke="black" points="32.5,-321 32.5,-342 299.5,-342 299.5,-321 32.5,-321"/>
<text text-anchor="start" x="83.5" y="-327.8" font-family="Times,serif" font-size="14.00" fill="grey">camera0_desired_state</text>
<polygon fill="none" stroke="black" points="299.5,-321 299.5,-342 663.5,-342 663.5,-321 299.5,-321"/>
<text text-anchor="start" x="374.5" y="-327.8" font-family="Times,serif" font-size="14.00">iiwa_generalized_acceleration</text>
<polygon fill="none" stroke="black" points="32.5,-300 32.5,-321 299.5,-321 299.5,-300 32.5,-300"/>
<text text-anchor="start" x="74.5" y="-306.8" font-family="Times,serif" font-size="14.00" fill="grey">Tennis_ball_desired_state</text>
<polygon fill="none" stroke="black" points="299.5,-300 299.5,-321 663.5,-321 663.5,-300 299.5,-300"/>
<text text-anchor="start" x="445.5" y="-306.8" font-family="Times,serif" font-size="14.00">wsg_state</text>
<polygon fill="none" stroke="black" points="32.5,-279 32.5,-300 299.5,-300 299.5,-279 32.5,-279"/>
<text text-anchor="start" x="73" y="-285.8" font-family="Times,serif" font-size="14.00">applied_generalized_force</text>
<polygon fill="none" stroke="black" points="299.5,-279 299.5,-300 663.5,-300 663.5,-279 299.5,-279"/>
<text text-anchor="start" x="375" y="-285.8" font-family="Times,serif" font-size="14.00">wsg_generalized_acceleration</text>
<polygon fill="none" stroke="black" points="32.5,-258 32.5,-279 299.5,-279 299.5,-258 32.5,-258"/>
<text text-anchor="start" x="90.5" y="-264.8" font-family="Times,serif" font-size="14.00">applied_spatial_force</text>
<polygon fill="none" stroke="black" points="299.5,-258 299.5,-279 663.5,-279 663.5,-258 299.5,-258"/>
<text text-anchor="start" x="429" y="-264.8" font-family="Times,serif" font-size="14.00" fill="grey">camera0_state</text>
<polyline fill="none" stroke="grey" points="32.5,-258 32.5,-27 299.5,-27 "/>
<polygon fill="none" stroke="black" points="299.5,-237 299.5,-258 663.5,-258 663.5,-237 299.5,-237"/>
<text text-anchor="start" x="358.5" y="-243.8" font-family="Times,serif" font-size="14.00" fill="grey">camera0_generalized_acceleration</text>
<polygon fill="none" stroke="black" points="299.5,-216 299.5,-237 663.5,-237 663.5,-216 299.5,-216"/>
<text text-anchor="start" x="420" y="-222.8" font-family="Times,serif" font-size="14.00">Tennis_ball_state</text>
<polygon fill="none" stroke="black" points="299.5,-195 299.5,-216 663.5,-216 663.5,-195 299.5,-195"/>
<text text-anchor="start" x="349.5" y="-201.8" font-family="Times,serif" font-size="14.00">Tennis_ball_generalized_acceleration</text>
<polygon fill="none" stroke="black" points="299.5,-174 299.5,-195 663.5,-195 663.5,-174 299.5,-174"/>
<text text-anchor="start" x="308" y="-180.8" font-family="Times,serif" font-size="14.00" fill="grey">WorldModelInstance_generalized_contact_forces</text>
<polygon fill="none" stroke="black" points="299.5,-153 299.5,-174 663.5,-174 663.5,-153 299.5,-153"/>
<text text-anchor="start" x="302.5" y="-159.8" font-family="Times,serif" font-size="14.00" fill="grey">DefaultModelInstance_generalized_contact_forces</text>
<polygon fill="none" stroke="black" points="299.5,-132 299.5,-153 663.5,-153 663.5,-132 299.5,-132"/>
<text text-anchor="start" x="367" y="-138.8" font-family="Times,serif" font-size="14.00">iiwa_generalized_contact_forces</text>
<polygon fill="none" stroke="black" points="299.5,-111 299.5,-132 663.5,-132 663.5,-111 299.5,-111"/>
<text text-anchor="start" x="367" y="-117.8" font-family="Times,serif" font-size="14.00">wsg_generalized_contact_forces</text>
<polygon fill="none" stroke="black" points="299.5,-90 299.5,-111 663.5,-111 663.5,-90 299.5,-90"/>
<text text-anchor="start" x="350.5" y="-96.8" font-family="Times,serif" font-size="14.00" fill="grey">camera0_generalized_contact_forces</text>
<polygon fill="none" stroke="black" points="299.5,-69 299.5,-90 663.5,-90 663.5,-69 299.5,-69"/>
<text text-anchor="start" x="341.5" y="-75.8" font-family="Times,serif" font-size="14.00">Tennis_ball_generalized_contact_forces</text>
<polygon fill="none" stroke="black" points="299.5,-48 299.5,-69 663.5,-69 663.5,-48 299.5,-48"/>
<text text-anchor="start" x="427" y="-54.8" font-family="Times,serif" font-size="14.00">reaction_forces</text>
<polygon fill="none" stroke="black" points="299.5,-27 299.5,-48 663.5,-48 663.5,-27 299.5,-27"/>
<text text-anchor="start" x="427" y="-33.8" font-family="Times,serif" font-size="14.00">contact_results</text>
</g>
<!-- s3 -->
<g id="node2" class="node">
<title>s3</title>
<polygon fill="none" stroke="black" points="715.5,-591 715.5,-625 908.5,-625 908.5,-591 715.5,-591"/>
<text text-anchor="start" x="764" y="-611.8" font-family="Times,serif" font-weight="bold" font-size="14.00">SceneGraph</text>
<text text-anchor="start" x="741.5" y="-597.8" font-family="Times,serif" font-size="14.00">name=scene_graph</text>
<polygon fill="none" stroke="black" points="715.5,-570 715.5,-591 860.5,-591 860.5,-570 715.5,-570"/>
<text text-anchor="start" x="749.5" y="-576.8" font-family="Times,serif" font-size="14.00">plant_pose</text>
<polygon fill="none" stroke="black" points="860.5,-549 860.5,-591 908.5,-591 908.5,-549 860.5,-549"/>
<text text-anchor="start" x="863.5" y="-566.3" font-family="Times,serif" font-size="14.00">query</text>
<polygon fill="none" stroke="black" points="715.5,-549 715.5,-570 860.5,-570 860.5,-549 715.5,-549"/>
<text text-anchor="start" x="718.5" y="-555.8" font-family="Times,serif" font-size="14.00">plant_configuration</text>
</g>
<!-- s2&#45;&gt;s3 -->
<g id="edge3" class="edge">
<title>s2:e&#45;&gt;s3:w</title>
<path fill="none" stroke="black" d="M664.5,-584C682.96,-584 689.85,-581.26 704.33,-580.31"/>
<polygon fill="black" stroke="black" points="704.61,-583.81 714.5,-580 704.4,-576.81 704.61,-583.81"/>
</g>
<!-- s3&#45;&gt;s2 -->
<g id="edge4" class="edge">
<title>s3:e&#45;&gt;s2:w</title>
<path fill="none" stroke="black" d="M909.5,-570C928.69,-570 891.56,-421.36 707,-545 672.06,-568.4 705.94,-609.1 671,-632.5 612.06,-671.98 83.18,-682.15 32.5,-632.5 20.11,-620.36 13.05,-596.35 22,-587.44"/>
<polygon fill="black" stroke="black" points="23.29,-590.69 31.5,-584 20.91,-584.11 23.29,-590.69"/>
</g>
<!-- s279 -->
<g id="node3" class="node">
<title>s279</title>
<polygon fill="none" stroke="black" points="960.5,-484 960.5,-532 1233.5,-532 1233.5,-484 960.5,-484"/>
<text text-anchor="start" x="1023.5" y="-518.8" font-family="Times,serif" font-weight="bold" font-size="14.00">MeshcatVisualizer</text>
<text text-anchor="start" x="963.5" y="-504.8" font-family="Times,serif" font-size="14.00">name=meshcat_visualizer(visualizer)</text>
<text text-anchor="start" x="1015.5" y="-490.8" font-family="Times,serif" font-size="14.00">path=/drake/visualizer</text>
<polygon fill="none" stroke="black" points="960.5,-463 960.5,-484 1142.5,-484 1142.5,-463 960.5,-463"/>
<text text-anchor="start" x="1005.5" y="-469.8" font-family="Times,serif" font-size="14.00">query_object</text>
<polyline fill="none" stroke="grey" points="1142.5,-463 1233.5,-463 1233.5,-484 "/>
</g>
<!-- s3&#45;&gt;s279 -->
<g id="edge5" class="edge">
<title>s3:e&#45;&gt;s279:w</title>
<path fill="none" stroke="black" d="M909.5,-570C954.02,-570 918.07,-488.26 949.39,-474.85"/>
<polygon fill="black" stroke="black" points="950.29,-478.24 959.5,-473 949.03,-471.36 950.29,-478.24"/>
</g>
<!-- s280 -->
<g id="node5" class="node">
<title>s280</title>
<polygon fill="none" stroke="black" points="965.5,-579 965.5,-627 1227.5,-627 1227.5,-579 965.5,-579"/>
<text text-anchor="start" x="1023" y="-613.8" font-family="Times,serif" font-weight="bold" font-size="14.00">MeshcatVisualizer</text>
<text text-anchor="start" x="968.5" y="-599.8" font-family="Times,serif" font-size="14.00">name=meshcat_visualizer(collision)</text>
<text text-anchor="start" x="1020" y="-585.8" font-family="Times,serif" font-size="14.00">path=/drake/collision</text>
<polygon fill="none" stroke="black" points="965.5,-558 965.5,-579 1142.5,-579 1142.5,-558 965.5,-558"/>
<text text-anchor="start" x="1008" y="-564.8" font-family="Times,serif" font-size="14.00">query_object</text>
<polyline fill="none" stroke="grey" points="1142.5,-558 1227.5,-558 1227.5,-579 "/>
</g>
<!-- s3&#45;&gt;s280 -->
<g id="edge6" class="edge">
<title>s3:e&#45;&gt;s280:w</title>
<path fill="none" stroke="black" d="M909.5,-570C930.14,-570 937.69,-568.58 954.24,-568.13"/>
<polygon fill="black" stroke="black" points="954.55,-571.63 964.5,-568 954.46,-564.63 954.55,-571.63"/>
</g>
<!-- meshcat_in -->
<g id="node4" class="node">
<title>meshcat_in</title>
<ellipse fill="none" stroke="magenta" cx="1327.05" cy="-545" rx="50.09" ry="18"/>
<text text-anchor="middle" x="1327.05" y="-541.3" font-family="Times,serif" font-size="14.00">Meshcat</text>
</g>
<!-- s279&#45;&gt;meshcat_in -->
<g id="edge1" class="edge">
<title>s279:e&#45;&gt;meshcat_in</title>
<path fill="none" stroke="magenta" stroke-dasharray="5,2" d="M1241,-498C1262.78,-498 1284.22,-509.95 1300.12,-521.8"/>
<polygon fill="magenta" stroke="magenta" points="1298.34,-524.85 1308.36,-528.3 1302.67,-519.36 1298.34,-524.85"/>
</g>
<!-- s280&#45;&gt;meshcat_in -->
<g id="edge2" class="edge">
<title>s280:e&#45;&gt;meshcat_in</title>
<path fill="none" stroke="magenta" stroke-dasharray="5,2" d="M1236.5,-593C1259.63,-593 1282.56,-580.4 1299.43,-568.12"/>
<polygon fill="magenta" stroke="magenta" points="1301.87,-570.66 1307.66,-561.79 1297.6,-565.11 1301.87,-570.66"/>
</g>
</g>
</svg>
