<?xml version="1.0" encoding="UTF-8" standalone="no"?>
<!DOCTYPE svg PUBLIC "-//W3C//DTD SVG 1.1//EN"
 "http://www.w3.org/Graphics/SVG/1.1/DTD/svg11.dtd">
<!-- Generated by graphviz version 2.43.0 (0)
 -->
<!-- Title: _196 Pages: 1 -->
<svg width="1409pt" height="646pt"
 viewBox="0.00 0.00 1409.09 646.00" xmlns="http://www.w3.org/2000/svg" xmlns:xlink="http://www.w3.org/1999/xlink">
<g id="graph0" class="graph" transform="scale(1 1) rotate(0) translate(4 642)">
<title>_196</title>
<polygon fill="white" stroke="transparent" points="-4,4 -4,-642 1405.09,-642 1405.09,4 -4,4"/>
<g id="clust1" class="cluster">
<title>cluster196diagram</title>
<polygon fill="none" stroke="black" points="8,-8 8,-630 1393.09,-630 1393.09,-8 8,-8"/>
<text text-anchor="start" x="666.55" y="-611.8" font-family="Times,serif" font-weight="bold" font-size="14.00">Diagram</text>
<text text-anchor="start" x="590.55" y="-597.8" font-family="Times,serif" font-size="14.00">name=object_catching_system</text>
</g>
<g id="clust2" class="cluster">
<title>cluster196subsystems</title>
<polygon fill="none" stroke="white" points="16,-16 16,-578 1385.09,-578 1385.09,-16 16,-16"/>
</g>
<!-- s2 -->
<g id="node1" class="node">
<title>s2</title>
<polygon fill="none" stroke="black" points="32.5,-532 32.5,-566 663.5,-566 663.5,-532 32.5,-532"/>
<text text-anchor="start" x="286.5" y="-552.8" font-family="Times,serif" font-weight="bold" font-size="14.00">MultibodyPlant</text>
<text text-anchor="start" x="304" y="-538.8" font-family="Times,serif" font-size="14.00">name=plant</text>
<polygon fill="none" stroke="black" points="32.5,-511 32.5,-532 299.5,-532 299.5,-511 32.5,-511"/>
<text text-anchor="start" x="107.5" y="-517.8" font-family="Times,serif" font-size="14.00">geometry_query</text>
<polygon fill="none" stroke="black" points="299.5,-511 299.5,-532 663.5,-532 663.5,-511 299.5,-511"/>
<text text-anchor="start" x="427" y="-517.8" font-family="Times,serif" font-size="14.00">geometry_pose</text>
<polygon fill="none" stroke="black" points="32.5,-490 32.5,-511 299.5,-511 299.5,-490 32.5,-490"/>
<text text-anchor="start" x="55.5" y="-496.8" font-family="Times,serif" font-size="14.00" fill="grey">WorldModelInstance_actuation</text>
<polygon fill="none" stroke="black" points="299.5,-490 299.5,-511 663.5,-511 663.5,-490 299.5,-490"/>
<text text-anchor="start" x="433" y="-496.8" font-family="Times,serif" font-size="14.00">net_actuation</text>
<polygon fill="none" stroke="black" points="32.5,-469 32.5,-490 299.5,-490 299.5,-469 32.5,-469"/>
<text text-anchor="start" x="50" y="-475.8" font-family="Times,serif" font-size="14.00" fill="grey">DefaultModelInstance_actuation</text>
<polygon fill="none" stroke="black" points="299.5,-469 299.5,-490 663.5,-490 663.5,-469 299.5,-469"/>
<text text-anchor="start" x="463" y="-475.8" font-family="Times,serif" font-size="14.00">state</text>
<polygon fill="none" stroke="black" points="32.5,-448 32.5,-469 299.5,-469 299.5,-448 32.5,-448"/>
<text text-anchor="start" x="105.5" y="-454.8" font-family="Times,serif" font-size="14.00">iiwa14_actuation</text>
<polygon fill="none" stroke="black" points="299.5,-448 299.5,-469 663.5,-469 663.5,-448 299.5,-448"/>
<text text-anchor="start" x="440.5" y="-454.8" font-family="Times,serif" font-size="14.00">body_poses</text>
<polygon fill="none" stroke="black" points="32.5,-427 32.5,-448 299.5,-448 299.5,-427 32.5,-427"/>
<text text-anchor="start" x="102.5" y="-433.8" font-family="Times,serif" font-size="14.00" fill="grey">gripper_actuation</text>
<polygon fill="none" stroke="black" points="299.5,-427 299.5,-448 663.5,-448 663.5,-427 299.5,-427"/>
<text text-anchor="start" x="420" y="-433.8" font-family="Times,serif" font-size="14.00">spatial_velocities</text>
<polygon fill="none" stroke="black" points="32.5,-406 32.5,-427 299.5,-427 299.5,-406 32.5,-406"/>
<text text-anchor="start" x="89" y="-412.8" font-family="Times,serif" font-size="14.00" fill="grey">Tennis_ball_actuation</text>
<polygon fill="none" stroke="black" points="299.5,-406 299.5,-427 663.5,-427 663.5,-406 299.5,-406"/>
<text text-anchor="start" x="406.5" y="-412.8" font-family="Times,serif" font-size="14.00">spatial_accelerations</text>
<polygon fill="none" stroke="black" points="32.5,-385 32.5,-406 299.5,-406 299.5,-385 32.5,-385"/>
<text text-anchor="start" x="132.5" y="-391.8" font-family="Times,serif" font-size="14.00">actuation</text>
<polygon fill="none" stroke="black" points="299.5,-385 299.5,-406 663.5,-406 663.5,-385 299.5,-385"/>
<text text-anchor="start" x="392.5" y="-391.8" font-family="Times,serif" font-size="14.00">generalized_acceleration</text>
<polygon fill="none" stroke="black" points="32.5,-364 32.5,-385 299.5,-385 299.5,-364 32.5,-364"/>
<text text-anchor="start" x="41" y="-370.8" font-family="Times,serif" font-size="14.00" fill="grey">WorldModelInstance_desired_state</text>
<polygon fill="none" stroke="black" points="299.5,-364 299.5,-385 663.5,-385 663.5,-364 299.5,-364"/>
<text text-anchor="start" x="386.5" y="-370.8" font-family="Times,serif" font-size="14.00" fill="grey">WorldModelInstance_state</text>
<polygon fill="none" stroke="black" points="32.5,-343 32.5,-364 299.5,-364 299.5,-343 32.5,-343"/>
<text text-anchor="start" x="35.5" y="-349.8" font-family="Times,serif" font-size="14.00" fill="grey">DefaultModelInstance_desired_state</text>
<polygon fill="none" stroke="black" points="299.5,-343 299.5,-364 663.5,-364 663.5,-343 299.5,-343"/>
<text text-anchor="start" x="316" y="-349.8" font-family="Times,serif" font-size="14.00" fill="grey">WorldModelInstance_generalized_acceleration</text>
<polygon fill="none" stroke="black" points="32.5,-322 32.5,-343 299.5,-343 299.5,-322 32.5,-322"/>
<text text-anchor="start" x="90.5" y="-328.8" font-family="Times,serif" font-size="14.00" fill="grey">iiwa14_desired_state</text>
<polygon fill="none" stroke="black" points="299.5,-322 299.5,-343 663.5,-343 663.5,-322 299.5,-322"/>
<text text-anchor="start" x="381" y="-328.8" font-family="Times,serif" font-size="14.00" fill="grey">DefaultModelInstance_state</text>
<polygon fill="none" stroke="black" points="32.5,-301 32.5,-322 299.5,-322 299.5,-301 32.5,-301"/>
<text text-anchor="start" x="87.5" y="-307.8" font-family="Times,serif" font-size="14.00" fill="grey">gripper_desired_state</text>
<polygon fill="none" stroke="black" points="299.5,-301 299.5,-322 663.5,-322 663.5,-301 299.5,-301"/>
<text text-anchor="start" x="310.5" y="-307.8" font-family="Times,serif" font-size="14.00" fill="grey">DefaultModelInstance_generalized_acceleration</text>
<polygon fill="none" stroke="black" points="32.5,-280 32.5,-301 299.5,-301 299.5,-280 32.5,-280"/>
<text text-anchor="start" x="74.5" y="-286.8" font-family="Times,serif" font-size="14.00" fill="grey">Tennis_ball_desired_state</text>
<polygon fill="none" stroke="black" points="299.5,-280 299.5,-301 663.5,-301 663.5,-280 299.5,-280"/>
<text text-anchor="start" x="436" y="-286.8" font-family="Times,serif" font-size="14.00">iiwa14_state</text>
<polygon fill="none" stroke="black" points="32.5,-259 32.5,-280 299.5,-280 299.5,-259 32.5,-259"/>
<text text-anchor="start" x="73" y="-265.8" font-family="Times,serif" font-size="14.00">applied_generalized_force</text>
<polygon fill="none" stroke="black" points="299.5,-259 299.5,-280 663.5,-280 663.5,-259 299.5,-259"/>
<text text-anchor="start" x="365.5" y="-265.8" font-family="Times,serif" font-size="14.00">iiwa14_generalized_acceleration</text>
<polygon fill="none" stroke="black" points="32.5,-238 32.5,-259 299.5,-259 299.5,-238 32.5,-238"/>
<text text-anchor="start" x="90.5" y="-244.8" font-family="Times,serif" font-size="14.00">applied_spatial_force</text>
<polygon fill="none" stroke="black" points="299.5,-238 299.5,-259 663.5,-259 663.5,-238 299.5,-238"/>
<text text-anchor="start" x="433" y="-244.8" font-family="Times,serif" font-size="14.00" fill="grey">gripper_state</text>
<polyline fill="none" stroke="grey" points="32.5,-238 32.5,-28 299.5,-28 "/>
<polygon fill="none" stroke="black" points="299.5,-217 299.5,-238 663.5,-238 663.5,-217 299.5,-217"/>
<text text-anchor="start" x="362.5" y="-223.8" font-family="Times,serif" font-size="14.00" fill="grey">gripper_generalized_acceleration</text>
<polygon fill="none" stroke="black" points="299.5,-196 299.5,-217 663.5,-217 663.5,-196 299.5,-196"/>
<text text-anchor="start" x="420" y="-202.8" font-family="Times,serif" font-size="14.00">Tennis_ball_state</text>
<polygon fill="none" stroke="black" points="299.5,-175 299.5,-196 663.5,-196 663.5,-175 299.5,-175"/>
<text text-anchor="start" x="349.5" y="-181.8" font-family="Times,serif" font-size="14.00">Tennis_ball_generalized_acceleration</text>
<polygon fill="none" stroke="black" points="299.5,-154 299.5,-175 663.5,-175 663.5,-154 299.5,-154"/>
<text text-anchor="start" x="308" y="-160.8" font-family="Times,serif" font-size="14.00" fill="grey">WorldModelInstance_generalized_contact_forces</text>
<polygon fill="none" stroke="black" points="299.5,-133 299.5,-154 663.5,-154 663.5,-133 299.5,-133"/>
<text text-anchor="start" x="302.5" y="-139.8" font-family="Times,serif" font-size="14.00" fill="grey">DefaultModelInstance_generalized_contact_forces</text>
<polygon fill="none" stroke="black" points="299.5,-112 299.5,-133 663.5,-133 663.5,-112 299.5,-112"/>
<text text-anchor="start" x="358" y="-118.8" font-family="Times,serif" font-size="14.00">iiwa14_generalized_contact_forces</text>
<polygon fill="none" stroke="black" points="299.5,-91 299.5,-112 663.5,-112 663.5,-91 299.5,-91"/>
<text text-anchor="start" x="355" y="-97.8" font-family="Times,serif" font-size="14.00" fill="grey">gripper_generalized_contact_forces</text>
<polygon fill="none" stroke="black" points="299.5,-70 299.5,-91 663.5,-91 663.5,-70 299.5,-70"/>
<text text-anchor="start" x="341.5" y="-76.8" font-family="Times,serif" font-size="14.00">Tennis_ball_generalized_contact_forces</text>
<polygon fill="none" stroke="black" points="299.5,-49 299.5,-70 663.5,-70 663.5,-49 299.5,-49"/>
<text text-anchor="start" x="427" y="-55.8" font-family="Times,serif" font-size="14.00">reaction_forces</text>
<polygon fill="none" stroke="black" points="299.5,-28 299.5,-49 663.5,-49 663.5,-28 299.5,-28"/>
<text text-anchor="start" x="427" y="-34.8" font-family="Times,serif" font-size="14.00">contact_results</text>
</g>
<!-- s3 -->
<g id="node2" class="node">
<title>s3</title>
<polygon fill="none" stroke="black" points="715.5,-529 715.5,-563 908.5,-563 908.5,-529 715.5,-529"/>
<text text-anchor="start" x="764" y="-549.8" font-family="Times,serif" font-weight="bold" font-size="14.00">SceneGraph</text>
<text text-anchor="start" x="741.5" y="-535.8" font-family="Times,serif" font-size="14.00">name=scene_graph</text>
<polygon fill="none" stroke="black" points="715.5,-508 715.5,-529 860.5,-529 860.5,-508 715.5,-508"/>
<text text-anchor="start" x="749.5" y="-514.8" font-family="Times,serif" font-size="14.00">plant_pose</text>
<polygon fill="none" stroke="black" points="860.5,-487 860.5,-529 908.5,-529 908.5,-487 860.5,-487"/>
<text text-anchor="start" x="863.5" y="-504.3" font-family="Times,serif" font-size="14.00">query</text>
<polygon fill="none" stroke="black" points="715.5,-487 715.5,-508 860.5,-508 860.5,-487 715.5,-487"/>
<text text-anchor="start" x="718.5" y="-493.8" font-family="Times,serif" font-size="14.00">plant_configuration</text>
</g>
<!-- s2&#45;&gt;s3 -->
<g id="edge3" class="edge">
<title>s2:e&#45;&gt;s3:w</title>
<path fill="none" stroke="black" d="M664.5,-522C682.96,-522 689.85,-519.26 704.33,-518.31"/>
<polygon fill="black" stroke="black" points="704.61,-521.81 714.5,-518 704.4,-514.81 704.61,-521.81"/>
</g>
<!-- s3&#45;&gt;s2 -->
<g id="edge4" class="edge">
<title>s3:e&#45;&gt;s2:w</title>
<path fill="none" stroke="black" d="M909.5,-508C928.74,-508 891.97,-359.36 707,-483 672.21,-506.25 705.79,-546.75 671,-570 612.02,-609.43 83.19,-619.64 32.5,-570 20.35,-558.1 13.38,-534.69 21.85,-525.66"/>
<polygon fill="black" stroke="black" points="23.39,-528.82 31.5,-522 20.91,-522.28 23.39,-528.82"/>
</g>
<!-- s175 -->
<g id="node3" class="node">
<title>s175</title>
<polygon fill="none" stroke="black" points="960.5,-422 960.5,-470 1233.5,-470 1233.5,-422 960.5,-422"/>
<text text-anchor="start" x="1023.5" y="-456.8" font-family="Times,serif" font-weight="bold" font-size="14.00">MeshcatVisualizer</text>
<text text-anchor="start" x="963.5" y="-442.8" font-family="Times,serif" font-size="14.00">name=meshcat_visualizer(visualizer)</text>
<text text-anchor="start" x="1015.5" y="-428.8" font-family="Times,serif" font-size="14.00">path=/drake/visualizer</text>
<polygon fill="none" stroke="black" points="960.5,-401 960.5,-422 1142.5,-422 1142.5,-401 960.5,-401"/>
<text text-anchor="start" x="1005.5" y="-407.8" font-family="Times,serif" font-size="14.00">query_object</text>
<polyline fill="none" stroke="grey" points="1142.5,-401 1233.5,-401 1233.5,-422 "/>
</g>
<!-- s3&#45;&gt;s175 -->
<g id="edge6" class="edge">
<title>s3:e&#45;&gt;s175:w</title>
<path fill="none" stroke="black" d="M909.5,-508C954.02,-508 918.07,-426.26 949.39,-412.85"/>
<polygon fill="black" stroke="black" points="950.29,-416.24 959.5,-411 949.03,-409.36 950.29,-416.24"/>
</g>
<!-- s176 -->
<g id="node5" class="node">
<title>s176</title>
<polygon fill="none" stroke="black" points="965.5,-517 965.5,-565 1227.5,-565 1227.5,-517 965.5,-517"/>
<text text-anchor="start" x="1023" y="-551.8" font-family="Times,serif" font-weight="bold" font-size="14.00">MeshcatVisualizer</text>
<text text-anchor="start" x="968.5" y="-537.8" font-family="Times,serif" font-size="14.00">name=meshcat_visualizer(collision)</text>
<text text-anchor="start" x="1020" y="-523.8" font-family="Times,serif" font-size="14.00">path=/drake/collision</text>
<polygon fill="none" stroke="black" points="965.5,-496 965.5,-517 1142.5,-517 1142.5,-496 965.5,-496"/>
<text text-anchor="start" x="1008" y="-502.8" font-family="Times,serif" font-size="14.00">query_object</text>
<polyline fill="none" stroke="grey" points="1142.5,-496 1227.5,-496 1227.5,-517 "/>
</g>
<!-- s3&#45;&gt;s176 -->
<g id="edge5" class="edge">
<title>s3:e&#45;&gt;s176:w</title>
<path fill="none" stroke="black" d="M909.5,-508C930.14,-508 937.69,-506.58 954.24,-506.13"/>
<polygon fill="black" stroke="black" points="954.55,-509.63 964.5,-506 954.46,-502.63 954.55,-509.63"/>
</g>
<!-- meshcat_in -->
<g id="node4" class="node">
<title>meshcat_in</title>
<ellipse fill="none" stroke="magenta" cx="1327.05" cy="-483" rx="50.09" ry="18"/>
<text text-anchor="middle" x="1327.05" y="-479.3" font-family="Times,serif" font-size="14.00">Meshcat</text>
</g>
<!-- s175&#45;&gt;meshcat_in -->
<g id="edge1" class="edge">
<title>s175:e&#45;&gt;meshcat_in</title>
<path fill="none" stroke="magenta" stroke-dasharray="5,2" d="M1241,-436C1262.78,-436 1284.22,-447.95 1300.12,-459.8"/>
<polygon fill="magenta" stroke="magenta" points="1298.34,-462.85 1308.36,-466.3 1302.67,-457.36 1298.34,-462.85"/>
</g>
<!-- s176&#45;&gt;meshcat_in -->
<g id="edge2" class="edge">
<title>s176:e&#45;&gt;meshcat_in</title>
<path fill="none" stroke="magenta" stroke-dasharray="5,2" d="M1236.5,-531C1259.63,-531 1282.56,-518.4 1299.43,-506.12"/>
<polygon fill="magenta" stroke="magenta" points="1301.87,-508.66 1307.66,-499.79 1297.6,-503.11 1301.87,-508.66"/>
</g>
</g>
</svg>
