<?xml version="1.0" encoding="UTF-8" standalone="no"?>
<!DOCTYPE svg PUBLIC "-//W3C//DTD SVG 1.1//EN"
 "http://www.w3.org/Graphics/SVG/1.1/DTD/svg11.dtd">
<!-- Generated by graphviz version 2.43.0 (0)
 -->
<!-- Title: _180 Pages: 1 -->
<svg width="2118pt" height="1441pt"
 viewBox="0.00 0.00 2117.57 1441.00" xmlns="http://www.w3.org/2000/svg" xmlns:xlink="http://www.w3.org/1999/xlink">
<g id="graph0" class="graph" transform="scale(1 1) rotate(0) translate(4 1437)">
<title>_180</title>
<polygon fill="white" stroke="transparent" points="-4,4 -4,-1437 2113.57,-1437 2113.57,4 -4,4"/>
<g id="clust1" class="cluster">
<title>cluster180diagram</title>
<polygon fill="none" stroke="black" points="8,-8 8,-1425 2101.57,-1425 2101.57,-8 8,-8"/>
<text text-anchor="start" x="1020.79" y="-1406.8" font-family="Times,serif" font-weight="bold" font-size="14.00">Diagram</text>
<text text-anchor="start" x="944.79" y="-1392.8" font-family="Times,serif" font-size="14.00">name=object_catching_system</text>
</g>
<g id="clust2" class="cluster">
<title>cluster180subsystems</title>
<polygon fill="none" stroke="white" points="16,-16 16,-1373 2093.57,-1373 2093.57,-16 16,-16"/>
</g>
<g id="clust3" class="cluster">
<title>cluster179diagram</title>
<polygon fill="none" stroke="black" points="24,-24 24,-1365 2085.57,-1365 2085.57,-24 24,-24"/>
<text text-anchor="start" x="1021.29" y="-1346.8" font-family="Times,serif" font-weight="bold" font-size="14.00">Diagram</text>
<text text-anchor="start" x="1004.79" y="-1332.8" font-family="Times,serif" font-size="14.00">name=station</text>
</g>
<g id="clust4" class="cluster">
<title>clusters179out</title>
<polygon fill="lightgrey" stroke="lightgrey" points="1814.29,-1022 1814.29,-1313 2023.29,-1313 2023.29,-1022 1814.29,-1022"/>
<text text-anchor="middle" x="1918.79" y="-1297.8" font-family="Times,serif" font-size="14.00">output ports</text>
</g>
<g id="clust5" class="cluster">
<title>cluster179subsystems</title>
<polygon fill="none" stroke="white" points="32,-32 32,-1014 2077.57,-1014 2077.57,-32 32,-32"/>
</g>
<!-- s179out -->
<g id="node1" class="node">
<title>s179out</title>
<polygon fill="none" stroke="green" points="1833.79,-1253 1833.79,-1274 2004.79,-1274 2004.79,-1253 1833.79,-1253"/>
<text text-anchor="start" x="1848.29" y="-1259.8" font-family="Times,serif" font-size="14.00">camera0.rgb_image</text>
<polygon fill="none" stroke="green" points="1833.79,-1229 1833.79,-1250 2004.79,-1250 2004.79,-1229 1833.79,-1229"/>
<text text-anchor="start" x="1840.29" y="-1235.8" font-family="Times,serif" font-size="14.00">camera0.depth_image</text>
<polygon fill="none" stroke="green" points="1833.79,-1205 1833.79,-1226 2004.79,-1226 2004.79,-1205 1833.79,-1205"/>
<text text-anchor="start" x="1843.79" y="-1211.8" font-family="Times,serif" font-size="14.00">camera0.label_image</text>
<polygon fill="none" stroke="green" points="1833.79,-1181 1833.79,-1202 2004.79,-1202 2004.79,-1181 1833.79,-1181"/>
<text text-anchor="start" x="1848.29" y="-1187.8" font-family="Times,serif" font-size="14.00">camera1.rgb_image</text>
<polygon fill="none" stroke="green" points="1833.79,-1157 1833.79,-1178 2004.79,-1178 2004.79,-1157 1833.79,-1157"/>
<text text-anchor="start" x="1840.29" y="-1163.8" font-family="Times,serif" font-size="14.00">camera1.depth_image</text>
<polygon fill="none" stroke="green" points="1833.79,-1133 1833.79,-1154 2004.79,-1154 2004.79,-1133 1833.79,-1133"/>
<text text-anchor="start" x="1843.79" y="-1139.8" font-family="Times,serif" font-size="14.00">camera1.label_image</text>
<polygon fill="none" stroke="green" points="1833.79,-1109 1833.79,-1130 2004.79,-1130 2004.79,-1109 1833.79,-1109"/>
<text text-anchor="start" x="1873.29" y="-1115.8" font-family="Times,serif" font-size="14.00">query_object</text>
<polygon fill="none" stroke="green" points="1833.79,-1085 1833.79,-1106 2004.79,-1106 2004.79,-1085 1833.79,-1085"/>
<text text-anchor="start" x="1864.79" y="-1091.8" font-family="Times,serif" font-size="14.00">contact_results</text>
<polygon fill="none" stroke="green" points="1833.79,-1061 1833.79,-1082 2004.79,-1082 2004.79,-1061 1833.79,-1061"/>
<text text-anchor="start" x="1836.79" y="-1067.8" font-family="Times,serif" font-size="14.00">plant_continuous_state</text>
<polygon fill="none" stroke="green" points="1833.79,-1037 1833.79,-1058 2004.79,-1058 2004.79,-1037 1833.79,-1037"/>
<text text-anchor="start" x="1878.29" y="-1043.8" font-family="Times,serif" font-size="14.00">body_poses</text>
</g>
<!-- s2 -->
<g id="node2" class="node">
<title>s2</title>
<polygon fill="none" stroke="black" points="48.5,-649 48.5,-683 679.5,-683 679.5,-649 48.5,-649"/>
<text text-anchor="start" x="302.5" y="-669.8" font-family="Times,serif" font-weight="bold" font-size="14.00">MultibodyPlant</text>
<text text-anchor="start" x="320" y="-655.8" font-family="Times,serif" font-size="14.00">name=plant</text>
<polygon fill="none" stroke="black" points="48.5,-628 48.5,-649 315.5,-649 315.5,-628 48.5,-628"/>
<text text-anchor="start" x="123.5" y="-634.8" font-family="Times,serif" font-size="14.00">geometry_query</text>
<polygon fill="none" stroke="black" points="315.5,-628 315.5,-649 679.5,-649 679.5,-628 315.5,-628"/>
<text text-anchor="start" x="443" y="-634.8" font-family="Times,serif" font-size="14.00">geometry_pose</text>
<polygon fill="none" stroke="black" points="48.5,-607 48.5,-628 315.5,-628 315.5,-607 48.5,-607"/>
<text text-anchor="start" x="71.5" y="-613.8" font-family="Times,serif" font-size="14.00" fill="grey">WorldModelInstance_actuation</text>
<polygon fill="none" stroke="black" points="315.5,-607 315.5,-628 679.5,-628 679.5,-607 315.5,-607"/>
<text text-anchor="start" x="449" y="-613.8" font-family="Times,serif" font-size="14.00">net_actuation</text>
<polygon fill="none" stroke="black" points="48.5,-586 48.5,-607 315.5,-607 315.5,-586 48.5,-586"/>
<text text-anchor="start" x="66" y="-592.8" font-family="Times,serif" font-size="14.00" fill="grey">DefaultModelInstance_actuation</text>
<polygon fill="none" stroke="black" points="315.5,-586 315.5,-607 679.5,-607 679.5,-586 315.5,-586"/>
<text text-anchor="start" x="479" y="-592.8" font-family="Times,serif" font-size="14.00">state</text>
<polygon fill="none" stroke="black" points="48.5,-565 48.5,-586 315.5,-586 315.5,-565 48.5,-565"/>
<text text-anchor="start" x="130.5" y="-571.8" font-family="Times,serif" font-size="14.00">iiwa_actuation</text>
<polygon fill="none" stroke="black" points="315.5,-565 315.5,-586 679.5,-586 679.5,-565 315.5,-565"/>
<text text-anchor="start" x="456.5" y="-571.8" font-family="Times,serif" font-size="14.00">body_poses</text>
<polygon fill="none" stroke="black" points="48.5,-544 48.5,-565 315.5,-565 315.5,-544 48.5,-544"/>
<text text-anchor="start" x="114" y="-550.8" font-family="Times,serif" font-size="14.00" fill="grey">camera0_actuation</text>
<polygon fill="none" stroke="black" points="315.5,-544 315.5,-565 679.5,-565 679.5,-544 315.5,-544"/>
<text text-anchor="start" x="436" y="-550.8" font-family="Times,serif" font-size="14.00">spatial_velocities</text>
<polygon fill="none" stroke="black" points="48.5,-523 48.5,-544 315.5,-544 315.5,-523 48.5,-523"/>
<text text-anchor="start" x="105" y="-529.8" font-family="Times,serif" font-size="14.00" fill="grey">Tennis_ball_actuation</text>
<polygon fill="none" stroke="black" points="315.5,-523 315.5,-544 679.5,-544 679.5,-523 315.5,-523"/>
<text text-anchor="start" x="422.5" y="-529.8" font-family="Times,serif" font-size="14.00">spatial_accelerations</text>
<polygon fill="none" stroke="black" points="48.5,-502 48.5,-523 315.5,-523 315.5,-502 48.5,-502"/>
<text text-anchor="start" x="148.5" y="-508.8" font-family="Times,serif" font-size="14.00">actuation</text>
<polygon fill="none" stroke="black" points="315.5,-502 315.5,-523 679.5,-523 679.5,-502 315.5,-502"/>
<text text-anchor="start" x="408.5" y="-508.8" font-family="Times,serif" font-size="14.00">generalized_acceleration</text>
<polygon fill="none" stroke="black" points="48.5,-481 48.5,-502 315.5,-502 315.5,-481 48.5,-481"/>
<text text-anchor="start" x="57" y="-487.8" font-family="Times,serif" font-size="14.00" fill="grey">WorldModelInstance_desired_state</text>
<polygon fill="none" stroke="black" points="315.5,-481 315.5,-502 679.5,-502 679.5,-481 315.5,-481"/>
<text text-anchor="start" x="402.5" y="-487.8" font-family="Times,serif" font-size="14.00" fill="grey">WorldModelInstance_state</text>
<polygon fill="none" stroke="black" points="48.5,-460 48.5,-481 315.5,-481 315.5,-460 48.5,-460"/>
<text text-anchor="start" x="51.5" y="-466.8" font-family="Times,serif" font-size="14.00" fill="grey">DefaultModelInstance_desired_state</text>
<polygon fill="none" stroke="black" points="315.5,-460 315.5,-481 679.5,-481 679.5,-460 315.5,-460"/>
<text text-anchor="start" x="332" y="-466.8" font-family="Times,serif" font-size="14.00" fill="grey">WorldModelInstance_generalized_acceleration</text>
<polygon fill="none" stroke="black" points="48.5,-439 48.5,-460 315.5,-460 315.5,-439 48.5,-439"/>
<text text-anchor="start" x="115.5" y="-445.8" font-family="Times,serif" font-size="14.00" fill="grey">iiwa_desired_state</text>
<polygon fill="none" stroke="black" points="315.5,-439 315.5,-460 679.5,-460 679.5,-439 315.5,-439"/>
<text text-anchor="start" x="397" y="-445.8" font-family="Times,serif" font-size="14.00" fill="grey">DefaultModelInstance_state</text>
<polygon fill="none" stroke="black" points="48.5,-418 48.5,-439 315.5,-439 315.5,-418 48.5,-418"/>
<text text-anchor="start" x="99.5" y="-424.8" font-family="Times,serif" font-size="14.00" fill="grey">camera0_desired_state</text>
<polygon fill="none" stroke="black" points="315.5,-418 315.5,-439 679.5,-439 679.5,-418 315.5,-418"/>
<text text-anchor="start" x="326.5" y="-424.8" font-family="Times,serif" font-size="14.00" fill="grey">DefaultModelInstance_generalized_acceleration</text>
<polygon fill="none" stroke="black" points="48.5,-397 48.5,-418 315.5,-418 315.5,-397 48.5,-397"/>
<text text-anchor="start" x="90.5" y="-403.8" font-family="Times,serif" font-size="14.00" fill="grey">Tennis_ball_desired_state</text>
<polygon fill="none" stroke="black" points="315.5,-397 315.5,-418 679.5,-418 679.5,-397 315.5,-397"/>
<text text-anchor="start" x="461" y="-403.8" font-family="Times,serif" font-size="14.00">iiwa_state</text>
<polygon fill="none" stroke="black" points="48.5,-376 48.5,-397 315.5,-397 315.5,-376 48.5,-376"/>
<text text-anchor="start" x="89" y="-382.8" font-family="Times,serif" font-size="14.00">applied_generalized_force</text>
<polygon fill="none" stroke="black" points="315.5,-376 315.5,-397 679.5,-397 679.5,-376 315.5,-376"/>
<text text-anchor="start" x="390.5" y="-382.8" font-family="Times,serif" font-size="14.00">iiwa_generalized_acceleration</text>
<polygon fill="none" stroke="black" points="48.5,-355 48.5,-376 315.5,-376 315.5,-355 48.5,-355"/>
<text text-anchor="start" x="106.5" y="-361.8" font-family="Times,serif" font-size="14.00">applied_spatial_force</text>
<polygon fill="none" stroke="black" points="315.5,-355 315.5,-376 679.5,-376 679.5,-355 315.5,-355"/>
<text text-anchor="start" x="445" y="-361.8" font-family="Times,serif" font-size="14.00" fill="grey">camera0_state</text>
<polyline fill="none" stroke="grey" points="48.5,-355 48.5,-145 315.5,-145 "/>
<polygon fill="none" stroke="black" points="315.5,-334 315.5,-355 679.5,-355 679.5,-334 315.5,-334"/>
<text text-anchor="start" x="374.5" y="-340.8" font-family="Times,serif" font-size="14.00" fill="grey">camera0_generalized_acceleration</text>
<polygon fill="none" stroke="black" points="315.5,-313 315.5,-334 679.5,-334 679.5,-313 315.5,-313"/>
<text text-anchor="start" x="436" y="-319.8" font-family="Times,serif" font-size="14.00">Tennis_ball_state</text>
<polygon fill="none" stroke="black" points="315.5,-292 315.5,-313 679.5,-313 679.5,-292 315.5,-292"/>
<text text-anchor="start" x="365.5" y="-298.8" font-family="Times,serif" font-size="14.00">Tennis_ball_generalized_acceleration</text>
<polygon fill="none" stroke="black" points="315.5,-271 315.5,-292 679.5,-292 679.5,-271 315.5,-271"/>
<text text-anchor="start" x="324" y="-277.8" font-family="Times,serif" font-size="14.00" fill="grey">WorldModelInstance_generalized_contact_forces</text>
<polygon fill="none" stroke="black" points="315.5,-250 315.5,-271 679.5,-271 679.5,-250 315.5,-250"/>
<text text-anchor="start" x="318.5" y="-256.8" font-family="Times,serif" font-size="14.00" fill="grey">DefaultModelInstance_generalized_contact_forces</text>
<polygon fill="none" stroke="black" points="315.5,-229 315.5,-250 679.5,-250 679.5,-229 315.5,-229"/>
<text text-anchor="start" x="383" y="-235.8" font-family="Times,serif" font-size="14.00">iiwa_generalized_contact_forces</text>
<polygon fill="none" stroke="black" points="315.5,-208 315.5,-229 679.5,-229 679.5,-208 315.5,-208"/>
<text text-anchor="start" x="366.5" y="-214.8" font-family="Times,serif" font-size="14.00" fill="grey">camera0_generalized_contact_forces</text>
<polygon fill="none" stroke="black" points="315.5,-187 315.5,-208 679.5,-208 679.5,-187 315.5,-187"/>
<text text-anchor="start" x="357.5" y="-193.8" font-family="Times,serif" font-size="14.00">Tennis_ball_generalized_contact_forces</text>
<polygon fill="none" stroke="black" points="315.5,-166 315.5,-187 679.5,-187 679.5,-166 315.5,-166"/>
<text text-anchor="start" x="443" y="-172.8" font-family="Times,serif" font-size="14.00">reaction_forces</text>
<polygon fill="none" stroke="black" points="315.5,-145 315.5,-166 679.5,-166 679.5,-145 315.5,-145"/>
<text text-anchor="start" x="443" y="-151.8" font-family="Times,serif" font-size="14.00">contact_results</text>
</g>
<!-- s2&#45;&gt;s179out -->
<g id="edge30" class="edge">
<title>s2:e&#45;&gt;s179out:w</title>
<path fill="none" stroke="green" d="M680.5,-155C734.82,-155 694.11,-596 723,-642 903.38,-929.25 1055.75,-929.25 1379,-1032 1528.99,-1079.68 1577.97,-1027.7 1732,-1060 1774.78,-1068.97 1784.04,-1091.15 1822.38,-1094.56"/>
<polygon fill="green" stroke="green" points="1822.65,-1098.07 1832.79,-1095 1822.94,-1091.08 1822.65,-1098.07"/>
</g>
<!-- s2&#45;&gt;s179out -->
<g id="edge31" class="edge">
<title>s2:e&#45;&gt;s179out:w</title>
<path fill="none" stroke="green" d="M680.5,-597C786.03,-597 645.14,-998.76 723,-1070 1084.41,-1400.69 1336.09,-1075.51 1822.7,-1071.05"/>
<polygon fill="green" stroke="green" points="1822.8,-1074.55 1832.79,-1071 1822.77,-1067.55 1822.8,-1074.55"/>
</g>
<!-- s2&#45;&gt;s179out -->
<g id="edge32" class="edge">
<title>s2:e&#45;&gt;s179out:w</title>
<path fill="none" stroke="green" d="M680.5,-576C773.98,-576 669.09,-705.63 723,-782 820.41,-919.99 891.11,-916.42 1048,-979 1331.92,-1092.26 1426.38,-1057.06 1732,-1051 1773.14,-1050.18 1785.9,-1047.5 1822.4,-1047.06"/>
<polygon fill="green" stroke="green" points="1822.81,-1050.56 1832.79,-1047 1822.77,-1043.56 1822.81,-1050.56"/>
</g>
<!-- s3 -->
<g id="node3" class="node">
<title>s3</title>
<polygon fill="none" stroke="black" points="1056.5,-606 1056.5,-640 1335.5,-640 1335.5,-606 1056.5,-606"/>
<text text-anchor="start" x="1148" y="-626.8" font-family="Times,serif" font-weight="bold" font-size="14.00">SceneGraph</text>
<text text-anchor="start" x="1125.5" y="-612.8" font-family="Times,serif" font-size="14.00">name=scene_graph</text>
<polygon fill="none" stroke="black" points="1056.5,-585 1056.5,-606 1287.5,-606 1287.5,-585 1056.5,-585"/>
<text text-anchor="start" x="1133.5" y="-591.8" font-family="Times,serif" font-size="14.00">plant_pose</text>
<polygon fill="none" stroke="black" points="1287.5,-522 1287.5,-606 1335.5,-606 1335.5,-522 1287.5,-522"/>
<text text-anchor="start" x="1290.5" y="-560.3" font-family="Times,serif" font-size="14.00">query</text>
<polygon fill="none" stroke="black" points="1056.5,-564 1056.5,-585 1287.5,-585 1287.5,-564 1056.5,-564"/>
<text text-anchor="start" x="1102.5" y="-570.8" font-family="Times,serif" font-size="14.00">plant_configuration</text>
<polygon fill="none" stroke="black" points="1056.5,-543 1056.5,-564 1287.5,-564 1287.5,-543 1056.5,-543"/>
<text text-anchor="start" x="1090.5" y="-549.8" font-family="Times,serif" font-size="14.00">inertia_visualizer_pose</text>
<polygon fill="none" stroke="black" points="1056.5,-522 1056.5,-543 1287.5,-543 1287.5,-522 1056.5,-522"/>
<text text-anchor="start" x="1059.5" y="-528.8" font-family="Times,serif" font-size="14.00">inertia_visualizer_configuration</text>
</g>
<!-- s2&#45;&gt;s3 -->
<g id="edge8" class="edge">
<title>s2:e&#45;&gt;s3:w</title>
<path fill="none" stroke="black" d="M680.5,-639C827.96,-639 871.8,-670.7 1012,-625 1030.29,-619.04 1032.19,-603.06 1045.49,-597.75"/>
<polygon fill="black" stroke="black" points="1046.25,-601.17 1055.5,-596 1045.05,-594.27 1046.25,-601.17"/>
</g>
<!-- s115 -->
<g id="node9" class="node">
<title>s115</title>
<polygon fill="none" stroke="black" points="749.5,-81 749.5,-115 985.5,-115 985.5,-81 749.5,-81"/>
<text text-anchor="start" x="752.5" y="-101.8" font-family="Times,serif" font-weight="bold" font-size="14.00">ContactResultsToLcmSystem</text>
<text text-anchor="start" x="789" y="-87.8" font-family="Times,serif" font-size="14.00">name=contact_to_lcm</text>
<polygon fill="none" stroke="black" points="749.5,-60 749.5,-81 867.5,-81 867.5,-60 749.5,-60"/>
<text text-anchor="start" x="799" y="-66.8" font-family="Times,serif" font-size="14.00">u0</text>
<polygon fill="none" stroke="black" points="867.5,-60 867.5,-81 985.5,-81 985.5,-60 867.5,-60"/>
<text text-anchor="start" x="917.5" y="-66.8" font-family="Times,serif" font-size="14.00">y0</text>
</g>
<!-- s2&#45;&gt;s115 -->
<g id="edge14" class="edge">
<title>s2:e&#45;&gt;s115:w</title>
<path fill="none" stroke="black" d="M680.5,-155C725.1,-155 704.14,-82.76 738.5,-71.48"/>
<polygon fill="black" stroke="black" points="739.12,-74.92 748.5,-70 738.1,-68 739.12,-74.92"/>
</g>
<!-- s117 -->
<g id="node11" class="node">
<title>s117</title>
<polygon fill="none" stroke="black" points="731.5,-562 731.5,-596 1004.5,-596 1004.5,-562 731.5,-562"/>
<text text-anchor="start" x="801" y="-582.8" font-family="Times,serif" font-weight="bold" font-size="14.00">InertiaVisualizer</text>
<text text-anchor="start" x="780.5" y="-568.8" font-family="Times,serif" font-size="14.00">name=inertia_visualizer</text>
<polygon fill="none" stroke="black" points="731.5,-541 731.5,-562 889.5,-562 889.5,-541 731.5,-541"/>
<text text-anchor="start" x="734.5" y="-547.8" font-family="Times,serif" font-size="14.00">plant_geometry_pose</text>
<polygon fill="none" stroke="black" points="889.5,-541 889.5,-562 1004.5,-562 1004.5,-541 889.5,-541"/>
<text text-anchor="start" x="892.5" y="-547.8" font-family="Times,serif" font-size="14.00">geometry_pose</text>
</g>
<!-- s2&#45;&gt;s117 -->
<g id="edge19" class="edge">
<title>s2:e&#45;&gt;s117:w</title>
<path fill="none" stroke="black" d="M680.5,-639C721.44,-639 692.01,-566.1 720.31,-553"/>
<polygon fill="black" stroke="black" points="721.36,-556.36 730.5,-551 720.01,-549.49 721.36,-556.36"/>
</g>
<!-- s158 -->
<g id="node16" class="node">
<title>s158</title>
<polygon fill="none" stroke="black" points="1429.5,-106 1429.5,-154 1682.5,-154 1682.5,-106 1429.5,-106"/>
<text text-anchor="start" x="1485.5" y="-140.8" font-family="Times,serif" font-weight="bold" font-size="14.00">ContactVisualizer</text>
<text text-anchor="start" x="1432.5" y="-126.8" font-family="Times,serif" font-size="14.00">name=meshcat_contact_visualizer</text>
<text text-anchor="start" x="1457.5" y="-112.8" font-family="Times,serif" font-size="14.00">path=/drake/contact_forces</text>
<polygon fill="none" stroke="black" points="1429.5,-85 1429.5,-106 1610.5,-106 1610.5,-85 1429.5,-85"/>
<text text-anchor="start" x="1465.5" y="-91.8" font-family="Times,serif" font-size="14.00">contact_results</text>
<polyline fill="none" stroke="grey" points="1610.5,-64 1682.5,-64 1682.5,-106 "/>
<polygon fill="none" stroke="black" points="1429.5,-64 1429.5,-85 1610.5,-85 1610.5,-64 1429.5,-64"/>
<text text-anchor="start" x="1474" y="-70.8" font-family="Times,serif" font-size="14.00">query_object</text>
</g>
<!-- s2&#45;&gt;s158 -->
<g id="edge11" class="edge">
<title>s2:e&#45;&gt;s158:w</title>
<path fill="none" stroke="black" d="M680.5,-155C975.01,-155 1058.19,-215.96 1343,-141 1381.14,-130.96 1384.94,-100.84 1418.26,-95.74"/>
<polygon fill="black" stroke="black" points="1418.78,-99.21 1428.5,-95 1418.27,-92.23 1418.78,-99.21"/>
</g>
<!-- s3&#45;&gt;s179out -->
<g id="edge29" class="edge">
<title>s3:e&#45;&gt;s179out:w</title>
<path fill="none" stroke="green" d="M1336.5,-564C1437.17,-564 1307,-944.65 1379,-1015 1435.25,-1069.96 1658.62,-1011.73 1732,-1040 1781.69,-1059.14 1776.8,-1111.61 1822.57,-1118.3"/>
<polygon fill="green" stroke="green" points="1822.57,-1121.8 1832.79,-1119 1823.05,-1114.82 1822.57,-1121.8"/>
</g>
<!-- s3&#45;&gt;s2 -->
<g id="edge10" class="edge">
<title>s3:e&#45;&gt;s2:w</title>
<path fill="none" stroke="black" d="M1336.5,-564C1356.95,-564 1350.12,-532.3 1335.5,-518 1244.17,-428.63 1153.54,-445.97 1048,-518 1011.73,-542.75 1047.61,-584.32 1012,-610 959.84,-647.62 777.88,-591.48 723,-625 695.81,-641.61 714.61,-671.1 687,-687 441.07,-828.59 251.24,-885.56 48.5,-687 36.35,-675.1 29.38,-651.69 37.85,-642.66"/>
<polygon fill="black" stroke="black" points="39.39,-645.82 47.5,-639 36.91,-639.28 39.39,-645.82"/>
</g>
<!-- s104 -->
<g id="node4" class="node">
<title>s104</title>
<polygon fill="none" stroke="black" points="1420.5,-968 1420.5,-1002 1691.5,-1002 1691.5,-968 1420.5,-968"/>
<text text-anchor="start" x="1508" y="-988.8" font-family="Times,serif" font-weight="bold" font-size="14.00">RgbdSensor</text>
<text text-anchor="start" x="1452" y="-974.8" font-family="Times,serif" font-size="14.00">name=rgbd_sensor_camera0</text>
<polygon fill="none" stroke="black" points="1420.5,-842 1420.5,-968 1543.5,-968 1543.5,-842 1420.5,-842"/>
<text text-anchor="start" x="1423.5" y="-901.3" font-family="Times,serif" font-size="14.00">geometry_query</text>
<polygon fill="none" stroke="black" points="1543.5,-947 1543.5,-968 1691.5,-968 1691.5,-947 1543.5,-947"/>
<text text-anchor="start" x="1574.5" y="-953.8" font-family="Times,serif" font-size="14.00">color_image</text>
<polygon fill="none" stroke="black" points="1543.5,-926 1543.5,-947 1691.5,-947 1691.5,-926 1543.5,-926"/>
<text text-anchor="start" x="1556.5" y="-932.8" font-family="Times,serif" font-size="14.00">depth_image_32f</text>
<polygon fill="none" stroke="black" points="1543.5,-905 1543.5,-926 1691.5,-926 1691.5,-905 1543.5,-905"/>
<text text-anchor="start" x="1554.5" y="-911.8" font-family="Times,serif" font-size="14.00">depth_image_16u</text>
<polygon fill="none" stroke="black" points="1543.5,-884 1543.5,-905 1691.5,-905 1691.5,-884 1543.5,-884"/>
<text text-anchor="start" x="1575" y="-890.8" font-family="Times,serif" font-size="14.00">label_image</text>
<polygon fill="none" stroke="black" points="1543.5,-863 1543.5,-884 1691.5,-884 1691.5,-863 1543.5,-863"/>
<text text-anchor="start" x="1546.5" y="-869.8" font-family="Times,serif" font-size="14.00">body_pose_in_world</text>
<polygon fill="none" stroke="black" points="1543.5,-842 1543.5,-863 1691.5,-863 1691.5,-842 1543.5,-842"/>
<text text-anchor="start" x="1576" y="-848.8" font-family="Times,serif" font-size="14.00">image_time</text>
</g>
<!-- s3&#45;&gt;s104 -->
<g id="edge15" class="edge">
<title>s3:e&#45;&gt;s104:w</title>
<path fill="none" stroke="black" d="M1336.5,-564C1396.14,-564 1359.99,-772.47 1379,-829 1389.96,-861.59 1383.02,-896.97 1409.26,-903.82"/>
<polygon fill="black" stroke="black" points="1409.16,-907.33 1419.5,-905 1409.97,-900.37 1409.16,-907.33"/>
</g>
<!-- s105 -->
<g id="node5" class="node">
<title>s105</title>
<polygon fill="none" stroke="black" points="1420.5,-782 1420.5,-816 1691.5,-816 1691.5,-782 1420.5,-782"/>
<text text-anchor="start" x="1508" y="-802.8" font-family="Times,serif" font-weight="bold" font-size="14.00">RgbdSensor</text>
<text text-anchor="start" x="1452" y="-788.8" font-family="Times,serif" font-size="14.00">name=rgbd_sensor_camera1</text>
<polygon fill="none" stroke="black" points="1420.5,-656 1420.5,-782 1543.5,-782 1543.5,-656 1420.5,-656"/>
<text text-anchor="start" x="1423.5" y="-715.3" font-family="Times,serif" font-size="14.00">geometry_query</text>
<polygon fill="none" stroke="black" points="1543.5,-761 1543.5,-782 1691.5,-782 1691.5,-761 1543.5,-761"/>
<text text-anchor="start" x="1574.5" y="-767.8" font-family="Times,serif" font-size="14.00">color_image</text>
<polygon fill="none" stroke="black" points="1543.5,-740 1543.5,-761 1691.5,-761 1691.5,-740 1543.5,-740"/>
<text text-anchor="start" x="1556.5" y="-746.8" font-family="Times,serif" font-size="14.00">depth_image_32f</text>
<polygon fill="none" stroke="black" points="1543.5,-719 1543.5,-740 1691.5,-740 1691.5,-719 1543.5,-719"/>
<text text-anchor="start" x="1554.5" y="-725.8" font-family="Times,serif" font-size="14.00">depth_image_16u</text>
<polygon fill="none" stroke="black" points="1543.5,-698 1543.5,-719 1691.5,-719 1691.5,-698 1543.5,-698"/>
<text text-anchor="start" x="1575" y="-704.8" font-family="Times,serif" font-size="14.00">label_image</text>
<polygon fill="none" stroke="black" points="1543.5,-677 1543.5,-698 1691.5,-698 1691.5,-677 1543.5,-677"/>
<text text-anchor="start" x="1546.5" y="-683.8" font-family="Times,serif" font-size="14.00">body_pose_in_world</text>
<polygon fill="none" stroke="black" points="1543.5,-656 1543.5,-677 1691.5,-677 1691.5,-656 1543.5,-656"/>
<text text-anchor="start" x="1576" y="-662.8" font-family="Times,serif" font-size="14.00">image_time</text>
</g>
<!-- s3&#45;&gt;s105 -->
<g id="edge16" class="edge">
<title>s3:e&#45;&gt;s105:w</title>
<path fill="none" stroke="black" d="M1336.5,-564C1410.98,-564 1347.89,-704.81 1409.48,-718.01"/>
<polygon fill="black" stroke="black" points="1409.2,-721.5 1419.5,-719 1409.89,-714.53 1409.2,-721.5"/>
</g>
<!-- s107 -->
<g id="node6" class="node">
<title>s107</title>
<polygon fill="none" stroke="black" points="1424.5,-201 1424.5,-249 1687.5,-249 1687.5,-201 1424.5,-201"/>
<text text-anchor="start" x="1492.5" y="-235.8" font-family="Times,serif" font-weight="bold" font-size="14.00">DrakeVisualizer</text>
<text text-anchor="start" x="1427.5" y="-221.8" font-family="Times,serif" font-size="14.00">name=drake_visualizer(illustration)</text>
<text text-anchor="start" x="1435.5" y="-207.8" font-family="Times,serif" font-size="14.00">channel=DRAKE_VIEWER_DRAW</text>
<polygon fill="none" stroke="black" points="1424.5,-180 1424.5,-201 1601.5,-201 1601.5,-180 1424.5,-180"/>
<text text-anchor="start" x="1467" y="-186.8" font-family="Times,serif" font-size="14.00">query_object</text>
<polyline fill="none" stroke="grey" points="1601.5,-180 1687.5,-180 1687.5,-201 "/>
</g>
<!-- s3&#45;&gt;s107 -->
<g id="edge17" class="edge">
<title>s3:e&#45;&gt;s107:w</title>
<path fill="none" stroke="black" d="M1336.5,-564C1404.27,-564 1355.97,-325.74 1379,-262 1390.48,-230.21 1386.89,-197.43 1413.32,-191.09"/>
<polygon fill="black" stroke="black" points="1413.93,-194.55 1423.5,-190 1413.18,-187.59 1413.93,-194.55"/>
</g>
<!-- s111 -->
<g id="node8" class="node">
<title>s111</title>
<polygon fill="none" stroke="black" points="1387.5,-296 1387.5,-344 1724.5,-344 1724.5,-296 1387.5,-296"/>
<text text-anchor="start" x="1492.5" y="-330.8" font-family="Times,serif" font-weight="bold" font-size="14.00">DrakeVisualizer</text>
<text text-anchor="start" x="1432.5" y="-316.8" font-family="Times,serif" font-size="14.00">name=drake_visualizer(proximity)</text>
<text text-anchor="start" x="1390.5" y="-302.8" font-family="Times,serif" font-size="14.00">channel=DRAKE_VIEWER_DRAW_PROXIMITY</text>
<polygon fill="none" stroke="black" points="1387.5,-275 1387.5,-296 1601.5,-296 1601.5,-275 1387.5,-275"/>
<text text-anchor="start" x="1448.5" y="-281.8" font-family="Times,serif" font-size="14.00">query_object</text>
<polyline fill="none" stroke="grey" points="1601.5,-275 1724.5,-275 1724.5,-296 "/>
</g>
<!-- s3&#45;&gt;s111 -->
<g id="edge18" class="edge">
<title>s3:e&#45;&gt;s111:w</title>
<path fill="none" stroke="black" d="M1336.5,-564C1395.8,-564 1331.94,-316.74 1376.8,-287.76"/>
<polygon fill="black" stroke="black" points="1377.84,-291.11 1386.5,-285 1375.92,-284.37 1377.84,-291.11"/>
</g>
<!-- s155 -->
<g id="node12" class="node">
<title>s155</title>
<polygon fill="none" stroke="black" points="1414.5,-486 1414.5,-534 1697.5,-534 1697.5,-486 1414.5,-486"/>
<text text-anchor="start" x="1482.5" y="-520.8" font-family="Times,serif" font-weight="bold" font-size="14.00">MeshcatVisualizer</text>
<text text-anchor="start" x="1417.5" y="-506.8" font-family="Times,serif" font-size="14.00">name=meshcat_visualizer(illustration)</text>
<text text-anchor="start" x="1469.5" y="-492.8" font-family="Times,serif" font-size="14.00">path=/drake/illustration</text>
<polygon fill="none" stroke="black" points="1414.5,-465 1414.5,-486 1601.5,-486 1601.5,-465 1414.5,-465"/>
<text text-anchor="start" x="1462" y="-471.8" font-family="Times,serif" font-size="14.00">query_object</text>
<polyline fill="none" stroke="grey" points="1601.5,-465 1697.5,-465 1697.5,-486 "/>
</g>
<!-- s3&#45;&gt;s155 -->
<g id="edge21" class="edge">
<title>s3:e&#45;&gt;s155:w</title>
<path fill="none" stroke="black" d="M1336.5,-564C1384.92,-564 1364.85,-487.72 1403.11,-476.4"/>
<polygon fill="black" stroke="black" points="1404.06,-479.8 1413.5,-475 1403.12,-472.86 1404.06,-479.8"/>
</g>
<!-- s156 -->
<g id="node14" class="node">
<title>s156</title>
<polygon fill="none" stroke="black" points="1430.5,-581 1430.5,-629 1681.5,-629 1681.5,-581 1430.5,-581"/>
<text text-anchor="start" x="1482.5" y="-615.8" font-family="Times,serif" font-weight="bold" font-size="14.00">MeshcatVisualizer</text>
<text text-anchor="start" x="1433.5" y="-601.8" font-family="Times,serif" font-size="14.00">name=meshcat_visualizer(inertia)</text>
<text text-anchor="start" x="1485" y="-587.8" font-family="Times,serif" font-size="14.00">path=/drake/inertia</text>
<polygon fill="none" stroke="black" points="1430.5,-560 1430.5,-581 1601.5,-581 1601.5,-560 1430.5,-560"/>
<text text-anchor="start" x="1470" y="-566.8" font-family="Times,serif" font-size="14.00">query_object</text>
<polyline fill="none" stroke="grey" points="1601.5,-560 1681.5,-560 1681.5,-581 "/>
</g>
<!-- s3&#45;&gt;s156 -->
<g id="edge22" class="edge">
<title>s3:e&#45;&gt;s156:w</title>
<path fill="none" stroke="black" d="M1336.5,-564C1374.36,-564 1386.1,-569.01 1419.47,-569.87"/>
<polygon fill="black" stroke="black" points="1419.46,-573.37 1429.5,-570 1419.54,-566.38 1419.46,-573.37"/>
</g>
<!-- s157 -->
<g id="node15" class="node">
<title>s157</title>
<polygon fill="none" stroke="black" points="1419.5,-391 1419.5,-439 1692.5,-439 1692.5,-391 1419.5,-391"/>
<text text-anchor="start" x="1482.5" y="-425.8" font-family="Times,serif" font-weight="bold" font-size="14.00">MeshcatVisualizer</text>
<text text-anchor="start" x="1422.5" y="-411.8" font-family="Times,serif" font-size="14.00">name=meshcat_visualizer(proximity)</text>
<text text-anchor="start" x="1474.5" y="-397.8" font-family="Times,serif" font-size="14.00">path=/drake/proximity</text>
<polygon fill="none" stroke="black" points="1419.5,-370 1419.5,-391 1601.5,-391 1601.5,-370 1419.5,-370"/>
<text text-anchor="start" x="1464.5" y="-376.8" font-family="Times,serif" font-size="14.00">query_object</text>
<polyline fill="none" stroke="grey" points="1601.5,-370 1692.5,-370 1692.5,-391 "/>
</g>
<!-- s3&#45;&gt;s157 -->
<g id="edge20" class="edge">
<title>s3:e&#45;&gt;s157:w</title>
<path fill="none" stroke="black" d="M1336.5,-564C1422.36,-564 1336.62,-394.78 1408.4,-380.9"/>
<polygon fill="black" stroke="black" points="1408.85,-384.38 1418.5,-380 1408.23,-377.4 1408.85,-384.38"/>
</g>
<!-- s3&#45;&gt;s158 -->
<g id="edge12" class="edge">
<title>s3:e&#45;&gt;s158:w</title>
<path fill="none" stroke="black" d="M1336.5,-564C1380.86,-564 1365.98,-209.41 1379,-167 1391.62,-125.91 1383.33,-81.89 1418.1,-74.95"/>
<polygon fill="black" stroke="black" points="1418.86,-78.39 1428.5,-74 1418.22,-71.42 1418.86,-78.39"/>
</g>
<!-- s104&#45;&gt;s179out -->
<g id="edge23" class="edge">
<title>s104:e&#45;&gt;s179out:w</title>
<path fill="none" stroke="green" d="M1692.5,-958C1838.6,-958 1690.46,-1249.82 1822.77,-1263.5"/>
<polygon fill="green" stroke="green" points="1822.63,-1267 1832.79,-1264 1822.97,-1260.01 1822.63,-1267"/>
</g>
<!-- s104&#45;&gt;s179out -->
<g id="edge24" class="edge">
<title>s104:e&#45;&gt;s179out:w</title>
<path fill="none" stroke="green" d="M1692.5,-937C1837.28,-937 1691.85,-1225.39 1822.45,-1239.47"/>
<polygon fill="green" stroke="green" points="1822.62,-1242.98 1832.79,-1240 1822.98,-1235.99 1822.62,-1242.98"/>
</g>
<!-- s104&#45;&gt;s179out -->
<g id="edge25" class="edge">
<title>s104:e&#45;&gt;s179out:w</title>
<path fill="none" stroke="green" d="M1692.5,-894C1845.1,-894 1684.24,-1201.7 1822.76,-1215.52"/>
<polygon fill="green" stroke="green" points="1822.63,-1219.02 1832.79,-1216 1822.97,-1212.03 1822.63,-1219.02"/>
</g>
<!-- s105&#45;&gt;s179out -->
<g id="edge26" class="edge">
<title>s105:e&#45;&gt;s179out:w</title>
<path fill="none" stroke="green" d="M1692.5,-772C1787.35,-772 1738.27,-1162.2 1822.71,-1190.39"/>
<polygon fill="green" stroke="green" points="1822.36,-1193.88 1832.79,-1192 1823.46,-1186.97 1822.36,-1193.88"/>
</g>
<!-- s105&#45;&gt;s179out -->
<g id="edge27" class="edge">
<title>s105:e&#45;&gt;s179out:w</title>
<path fill="none" stroke="green" d="M1692.5,-751C1731.36,-751 1719.46,-792.22 1732,-829 1781.57,-974.44 1680.33,-1159.48 1822.59,-1167.71"/>
<polygon fill="green" stroke="green" points="1822.69,-1171.22 1832.79,-1168 1822.89,-1164.22 1822.69,-1171.22"/>
</g>
<!-- s105&#45;&gt;s179out -->
<g id="edge28" class="edge">
<title>s105:e&#45;&gt;s179out:w</title>
<path fill="none" stroke="green" d="M1692.5,-708C1749.07,-708 1717.9,-774.21 1732,-829 1767.64,-967.48 1690.17,-1134.62 1822.46,-1142.7"/>
<polygon fill="green" stroke="green" points="1822.69,-1146.2 1832.79,-1143 1822.89,-1139.21 1822.69,-1146.2"/>
</g>
<!-- drakelcminterface86179232in -->
<g id="node7" class="node">
<title>drakelcminterface86179232in</title>
<ellipse fill="none" stroke="black" cx="1918.79" cy="-215" rx="150.57" ry="18"/>
<text text-anchor="middle" x="1918.79" y="-211.3" font-family="Times,serif" font-size="14.00">drakelcminterface86179232in</text>
</g>
<!-- s107&#45;&gt;drakelcminterface86179232in -->
<g id="edge1" class="edge">
<title>s107:e&#45;&gt;drakelcminterface86179232in</title>
<path fill="none" stroke="#800080" stroke-dasharray="5,2" d="M1696.5,-215C1716.31,-215 1737.12,-215 1757.71,-215"/>
<polygon fill="#800080" stroke="#800080" points="1757.8,-218.5 1767.8,-215 1757.8,-211.5 1757.8,-218.5"/>
</g>
<!-- s111&#45;&gt;drakelcminterface86179232in -->
<g id="edge2" class="edge">
<title>s111:e&#45;&gt;drakelcminterface86179232in</title>
<path fill="none" stroke="#800080" stroke-dasharray="5,2" d="M1732,-310C1794.05,-310 1856.23,-267.48 1890.59,-239.33"/>
<polygon fill="#800080" stroke="#800080" points="1892.89,-241.97 1898.31,-232.87 1888.39,-236.61 1892.89,-241.97"/>
</g>
<!-- s116 -->
<g id="node10" class="node">
<title>s116</title>
<polygon fill="none" stroke="black" points="1070.5,-66 1070.5,-128 1321.5,-128 1321.5,-66 1070.5,-66"/>
<text text-anchor="start" x="1112.5" y="-114.8" font-family="Times,serif" font-weight="bold" font-size="14.00">LcmPublisherSystem</text>
<text text-anchor="start" x="1078.5" y="-100.8" font-family="Times,serif" font-size="14.00">name=contact_results_publisher</text>
<text text-anchor="start" x="1088" y="-86.8" font-family="Times,serif" font-size="14.00">channel=CONTACT_RESULTS</text>
<text text-anchor="start" x="1073.5" y="-72.8" font-family="Times,serif" font-size="14.00">type=lcmt_contact_results_for_viz</text>
<polygon fill="none" stroke="black" points="1070.5,-45 1070.5,-66 1243.5,-66 1243.5,-45 1070.5,-45"/>
<text text-anchor="start" x="1109.5" y="-51.8" font-family="Times,serif" font-size="14.00">lcm_message</text>
<polyline fill="none" stroke="grey" points="1243.5,-45 1321.5,-45 1321.5,-66 "/>
</g>
<!-- s115&#45;&gt;s116 -->
<g id="edge13" class="edge">
<title>s115:e&#45;&gt;s116:w</title>
<path fill="none" stroke="black" d="M986.5,-70C1020.33,-70 1030.16,-57.79 1059.31,-55.4"/>
<polygon fill="black" stroke="black" points="1059.65,-58.89 1069.5,-55 1059.37,-51.9 1059.65,-58.89"/>
</g>
<!-- s116&#45;&gt;drakelcminterface86179232in -->
<g id="edge3" class="edge">
<title>s116:e&#45;&gt;drakelcminterface86179232in</title>
<path fill="none" stroke="#800080" stroke-dasharray="5,2" d="M1330.5,-87C1357.34,-87 1353.51,-59.43 1379,-51 1527.96,-1.76 1585.26,4.5 1732,-51 1805.14,-78.66 1868.07,-149.71 1898.43,-188.6"/>
<polygon fill="#800080" stroke="#800080" points="1895.88,-191.03 1904.74,-196.84 1901.44,-186.77 1895.88,-191.03"/>
</g>
<!-- s117&#45;&gt;s3 -->
<g id="edge9" class="edge">
<title>s117:e&#45;&gt;s3:w</title>
<path fill="none" stroke="black" d="M1005.5,-551C1023.92,-551 1030.87,-552.37 1045.34,-552.84"/>
<polygon fill="black" stroke="black" points="1045.45,-556.34 1055.5,-553 1045.56,-549.35 1045.45,-556.34"/>
</g>
<!-- meshcat_in -->
<g id="node13" class="node">
<title>meshcat_in</title>
<ellipse fill="none" stroke="magenta" cx="1918.79" cy="-452" rx="50.09" ry="18"/>
<text text-anchor="middle" x="1918.79" y="-448.3" font-family="Times,serif" font-size="14.00">Meshcat</text>
</g>
<!-- s155&#45;&gt;meshcat_in -->
<g id="edge4" class="edge">
<title>s155:e&#45;&gt;meshcat_in</title>
<path fill="none" stroke="magenta" stroke-dasharray="5,2" d="M1706.5,-500C1765.35,-500 1831.19,-482.07 1873.49,-468.13"/>
<polygon fill="magenta" stroke="magenta" points="1874.83,-471.37 1883.19,-464.86 1872.6,-464.74 1874.83,-471.37"/>
</g>
<!-- s156&#45;&gt;meshcat_in -->
<g id="edge5" class="edge">
<title>s156:e&#45;&gt;meshcat_in</title>
<path fill="none" stroke="magenta" stroke-dasharray="5,2" d="M1690.5,-595C1778.13,-595 1859.61,-517.9 1896.73,-476.93"/>
<polygon fill="magenta" stroke="magenta" points="1899.53,-479.05 1903.55,-469.25 1894.29,-474.4 1899.53,-479.05"/>
</g>
<!-- s157&#45;&gt;meshcat_in -->
<g id="edge6" class="edge">
<title>s157:e&#45;&gt;meshcat_in</title>
<path fill="none" stroke="magenta" stroke-dasharray="5,2" d="M1701.5,-405C1761.75,-405 1829.33,-422.63 1872.66,-436.29"/>
<polygon fill="magenta" stroke="magenta" points="1871.73,-439.67 1882.33,-439.4 1873.88,-433.01 1871.73,-439.67"/>
</g>
<!-- s158&#45;&gt;meshcat_in -->
<g id="edge7" class="edge">
<title>s158:e&#45;&gt;meshcat_in</title>
<path fill="none" stroke="magenta" stroke-dasharray="5,2" d="M1691.5,-109C1722.94,-109 1716.15,-139.85 1732,-167 1750.65,-198.93 1749.2,-210.16 1768,-242 1809.29,-311.9 1867.22,-388.11 1897.51,-426.64"/>
<polygon fill="magenta" stroke="magenta" points="1894.95,-429.04 1903.89,-434.72 1900.44,-424.7 1894.95,-429.04"/>
</g>
<!-- \n -->
<g id="node17" class="node">
<title>\n</title>
<ellipse fill="none" stroke="black" cx="363.5" cy="-77" rx="27" ry="18"/>
</g>
</g>
</svg>
